<svg width="708.075048828125px" height="146.607470703125px" xmlns="http://www.w3.org/2000/svg" viewBox="-104.03752441406249 1.6962646484375057 708.075048828125 146.607470703125" style="background: rgba(0, 0, 0, 0);" preserveAspectRatio="xMidYMid"><defs><filter id="editing-extrude-glow"><feFlood flood-color="#333333" result="flood-1"></feFlood><feMorphology operator="erode" radius="1" in="SourceAlpha" result="erode"></feMorphology><feComposite operator="in" in="flood-1" in2="erode" result="comp1"></feComposite><feConvolveMatrix order="3,3" divisor="1" in="comp1" result="convolve" kernelMatrix="0 0 0 1 1 1 0 0 0"></feConvolveMatrix><feOffset dx="-3" dy="0" in="convolve" result="extrude"></feOffset><feComposite operator="in" in="flood-1" in2="extrude" result="comp-extrude"></feComposite><feFlood flood-color="#000000" result="flood-2"></feFlood><feComposite operator="in" in="flood-2" in2="SourceAlpha" result="comp2"></feComposite><feMorphology operator="dilate" radius="1" in="comp2" result="dilate"></feMorphology><feOffset dx="-4.5" dy="0" in="dilate" result="offset"></feOffset><feGaussianBlur in="offset" stdDeviation="5.8" result="blur"></feGaussianBlur><feComponentTransfer in="blur" result="shadow"><feFuncA type="linear" slope="0.8" intercept="-0.2"></feFuncA></feComponentTransfer><feMerge><feMergeNode in="shadow"></feMergeNode><feMergeNode in="comp-extrude"></feMergeNode><feMergeNode in="SourceGraphic"></feMergeNode></feMerge></filter></defs><g filter="url(#editing-extrude-glow)"><g transform="translate(-2.560000002384186, 112.2400016784668)"><path d="M32.64-53.36L32.64-53.36L32.64-53.36Q52.24-53.36 52.24-39.52L52.24-39.52L52.24-39.52Q52.24-31.92 47.36-27.36L47.36-27.36L47.36-27.36Q42.56-22.80 34.16-22.80L34.16-22.80L34.16-22.80Q30.24-22.80 27.20-25.04L27.20-25.04L27.20-25.04Q25.76-26 24.80-27.28L24.80-27.28L24.80-27.28Q30.64-27.28 33.72-30.84L33.72-30.84L33.72-30.84Q36.80-34.40 36.80-41.36L36.80-41.36L36.80-41.36Q36.80-48.32 29.92-48.32L29.92-48.32L28-48.32L28-48.32Q27.52-48.32 27.12-48.24L27.12-48.24L17.92 0L0.56 0L10.40-52.40L10.40-52.40Q18.96-53.20 23.92-53.28L23.92-53.28L23.92-53.28Q28.88-53.36 32.64-53.36ZM77.68-22.48L77.68-22.48L77.68-22.48Q80.56-27.60 80.56-32.80L80.56-32.80L80.56-32.80Q80.56-36.24 78.08-36.24L78.08-36.24L78.08-36.24Q76.16-36.24 74.16-32.96L74.16-32.96L74.16-32.96Q72.08-29.68 71.44-25.44L71.44-25.44L67.28 0L50.72 1.60L58.88-40.80L72.08-42.40L70.64-34.32L70.64-34.32Q74.56-42.40 83.36-42.40L83.36-42.40L83.36-42.40Q88-42.40 90.52-40L90.52-40L90.52-40Q93.04-37.60 93.04-32.68L93.04-32.68L93.04-32.68Q93.04-27.76 89.80-24.64L89.80-24.64L89.80-24.64Q86.56-21.52 81.04-21.52L81.04-21.52L81.04-21.52Q78.64-21.52 77.68-22.48ZM113.52-4.40L113.52-4.40L113.52-4.40Q111.04 1.60 103.12 1.60L103.12 1.60L103.12 1.60Q99.04 1.60 96.48-1.20L96.48-1.20L96.48-1.20Q94.32-3.68 94.32-6.16L94.32-6.16L94.32-6.16Q94.32-12.64 97.28-25.28L97.28-25.28L100.24-40.80L116.48-42.40L111.60-17.12L111.60-17.12Q110.24-11.20 110.24-9.12L110.24-9.12L110.24-9.12Q110.24-4.56 113.52-4.40ZM101.68-51.92L101.68-51.92L101.68-51.92Q101.68-55.04 104.28-56.72L104.28-56.72L104.28-56.72Q106.88-58.40 110.64-58.40L110.64-58.40L110.64-58.40Q114.40-58.40 116.68-56.72L116.68-56.72L116.68-56.72Q118.96-55.04 118.96-51.92L118.96-51.92L118.96-51.92Q118.96-48.80 116.44-47.20L116.44-47.20L116.44-47.20Q113.92-45.60 110.16-45.60L110.16-45.60L110.16-45.60Q106.40-45.60 104.04-47.20L104.04-47.20L104.04-47.20Q101.68-48.80 101.68-51.92ZM159.60-33.28L159.60-33.28L159.60-33.28Q159.60-29.92 156.80-27.84L156.80-27.84L156.80-27.84Q154-25.76 149.44-25.76L149.44-25.76L149.44-25.76Q147.52-25.76 146.40-26.32L146.40-26.32L146.40-26.32Q147.28-28.40 147.56-31L147.56-31L147.56-31Q147.84-33.60 147.84-34.32L147.84-34.32L147.84-34.32Q147.84-37.68 145.52-37.68L145.52-37.68L145.52-37.68Q143.92-37.68 142.12-35.68L142.12-35.68L142.12-35.68Q140.32-33.68 138.80-30.56L138.80-30.56L138.80-30.56Q135.44-23.36 135.44-16.08L135.44-16.08L135.44-16.08Q135.44-12.08 136.96-10.28L136.96-10.28L136.96-10.28Q138.48-8.48 141.84-8.48L141.84-8.48L141.84-8.48Q146.48-8.48 150.16-12.32L150.16-12.32L150.16-12.32Q151.20-13.52 151.76-14.88L151.76-14.88L151.76-14.88Q154.80-13.28 154.80-8.88L154.80-8.88L154.80-8.88Q154.80-4.40 149.84-1.44L149.84-1.44L149.84-1.44Q144.72 1.60 136.56 1.60L136.56 1.60L136.56 1.60Q120.32 1.60 120.32-15.60L120.32-15.60L120.32-15.60Q120.32-28.16 127.44-35.36L127.44-35.36L127.44-35.36Q134.32-42.40 146.96-42.40L146.96-42.40L146.96-42.40Q159.60-42.40 159.60-33.28ZM194.16-13.52L194.16-13.52L194.16-13.52Q196.16-12.16 196.16-9.16L196.16-9.16L196.16-9.16Q196.16-6.16 194.64-4.24L194.64-4.24L194.64-4.24Q193.12-2.32 190.64-1.04L190.64-1.04L190.64-1.04Q185.52 1.60 180 1.60L180 1.60L180 1.60Q174.48 1.60 171.24 0.40L171.24 0.40L171.24 0.40Q168-0.80 165.84-3.04L165.84-3.04L165.84-3.04Q161.60-7.28 161.60-15.04L161.60-15.04L161.60-15.04Q161.60-27.12 168.16-34.48L168.16-34.48L168.16-34.48Q175.20-42.40 187.44-42.40L187.44-42.40L187.44-42.40Q195.04-42.40 198.80-39.20L198.80-39.20L198.80-39.20Q201.60-36.80 201.60-32.88L201.60-32.88L201.60-32.88Q201.60-18.80 177.28-18.80L177.28-18.80L177.28-18.80Q176.96-16.72 176.96-14.96L176.96-14.96L176.96-14.96Q176.96-11.28 178.60-9.88L178.60-9.88L178.60-9.88Q180.24-8.48 183.28-8.48L183.28-8.48L183.28-8.48Q186.32-8.48 189.56-9.88L189.56-9.88L189.56-9.88Q192.80-11.28 194.16-13.52ZM177.84-22.24L177.84-22.24L177.84-22.24Q183.52-22.24 186.80-25.76L186.80-25.76L186.80-25.76Q190.08-29.12 190.08-34.48L190.08-34.48L190.08-34.48Q190.08-36.32 189.40-37.32L189.40-37.32L189.40-37.32Q188.72-38.32 187.36-38.32L187.36-38.32L187.36-38.32Q186-38.32 184.84-37.80L184.84-37.80L184.84-37.80Q183.68-37.28 182.48-35.52L182.48-35.52L182.48-35.52Q179.52-31.52 177.84-22.24ZM211.12 0L201.92 0L216.40-52.80L233.12-52.80L236.80-22.64L251.68-52.80L265.68-52.80L267.12-13.28L267.12-13.28Q267.44-5.44 271.28-3.04L271.28-3.04L271.28-3.04Q270.40-1.44 267.84 0.08L267.84 0.08L267.84 0.08Q265.28 1.60 261.88 1.60L261.88 1.60L261.88 1.60Q258.48 1.60 256.48 0.64L256.48 0.64L256.48 0.64Q254.48-0.32 253.36-1.92L253.36-1.92L253.36-1.92Q251.36-4.80 251.36-10.32L251.36-10.32L251.36-35.04L235.60 0L225.68 0L220.08-35.92L211.12 0ZM300.16-9.04L300.16-9.04L300.16-9.04Q296-4.72 288.40-4.72L288.40-4.72L288.40-4.72Q278.88-4.72 276.88-11.68L276.88-11.68L276.88-11.68Q276.24-13.76 276.24-16.08L276.24-16.08L276.24-16.08Q276.24-18.40 276.72-20.80L276.72-20.80L280.48-40.80L296.72-42.40L292.32-19.12L292.32-19.12Q292.16-18.08 291.92-16.96L291.92-16.96L291.92-16.96Q291.68-15.84 291.68-14.68L291.68-14.68L291.68-14.68Q291.68-13.52 292.08-12.76L292.08-12.76L292.08-12.76Q292.48-12 293.04-11.52L293.04-11.52L293.04-11.52Q294-10.88 295.72-10.88L295.72-10.88L295.72-10.88Q297.44-10.88 298.92-12.96L298.92-12.96L298.92-12.96Q300.40-15.04 301.12-18.64L301.12-18.64L305.52-40.80L321.28-42.40L315.28-10.96L315.28-10.96Q312.32 4.40 306.24 10.48L306.24 10.48L306.24 10.48Q303.12 13.60 299.08 14.84L299.08 14.84L299.08 14.84Q295.04 16.08 289.84 16.08L289.84 16.08L289.84 16.08Q281.44 16.08 276.64 13.44L276.64 13.44L276.64 13.44Q271.84 10.80 271.84 6.40L271.84 6.40L271.84 6.40Q271.84 3.12 274.32 1.24L274.32 1.24L274.32 1.24Q276.80-0.64 280.64-0.64L280.64-0.64L280.64-0.64Q284-0.64 286.56 0.80L286.56 0.80L286.56 0.80Q288.08 1.68 288.80 2.80L288.80 2.80L288.80 2.80Q286.96 4.40 286.96 7.04L286.96 7.04L286.96 7.04Q286.96 10.56 290.16 10.56L290.16 10.56L290.16 10.56Q295.44 10.56 298.48-1.60L298.48-1.60L298.48-1.60Q299.36-5.20 300.16-9.04ZM355.36-36.96L355.36-36.96L355.36-36.96Q356.56-39.36 356.56-41.60L356.56-41.60L356.56-41.60Q356.56-43.84 356.32-45.08L356.32-45.08L356.32-45.08Q356.08-46.32 355.52-47.28L355.52-47.28L355.52-47.28Q354.32-49.36 351.92-49.36L351.92-49.36L351.92-49.36Q348.96-49.36 346.56-47.20L346.56-47.20L346.56-47.20Q344-44.96 344-41.44L344-41.44L344-41.44Q344-39.20 345.56-37.48L345.56-37.48L345.56-37.48Q347.12-35.76 349.52-34.16L349.52-34.16L349.52-34.16Q351.92-32.56 354.64-30.96L354.64-30.96L354.64-30.96Q357.36-29.36 359.76-27.44L359.76-27.44L359.76-27.44Q365.28-23.04 365.28-17.12L365.28-17.12L365.28-17.12Q365.28-13.12 363.16-9.72L363.16-9.72L363.16-9.72Q361.04-6.32 357.52-3.84L357.52-3.84L357.52-3.84Q349.84 1.60 339.68 1.60L339.68 1.60L339.68 1.60Q331.44 1.60 327.20-1.08L327.20-1.08L327.20-1.08Q322.96-3.76 322.96-7.84L322.96-7.84L322.96-7.84Q322.96-15.12 328.64-16.96L328.64-16.96L328.64-16.96Q330.24-17.52 332.68-17.52L332.68-17.52L332.68-17.52Q335.12-17.52 337.92-16.48L337.92-16.48L337.92-16.48Q336.64-13.20 336.64-10.24L336.64-10.24L336.64-10.24Q336.64-3.84 341.20-3.84L341.20-3.84L341.20-3.84Q344.16-3.84 346.60-6L346.60-6L346.60-6Q349.04-8.16 349.04-10.60L349.04-10.60L349.04-10.60Q349.04-13.04 347.48-14.80L347.48-14.80L347.48-14.80Q345.92-16.56 343.60-17.96L343.60-17.96L343.60-17.96Q341.28-19.36 338.60-20.72L338.60-20.72L338.60-20.72Q335.92-22.08 333.60-24L333.60-24L333.60-24Q328.16-28.40 328.16-35.44L328.16-35.44L328.16-35.44Q328.16-40 330.40-43.56L330.40-43.56L330.40-43.56Q332.64-47.12 336.24-49.52L336.24-49.52L336.24-49.52Q343.44-54.40 352.28-54.40L352.28-54.40L352.28-54.40Q361.12-54.40 365.40-51.76L365.40-51.76L365.40-51.76Q369.68-49.12 369.68-44.64L369.68-44.64L369.68-44.64Q369.68-40.72 366.64-38.24L366.64-38.24L366.64-38.24Q364-36.16 360.80-36.16L360.80-36.16L360.80-36.16Q357.60-36.16 355.36-36.96ZM390.48-4.40L390.48-4.40L390.48-4.40Q388 1.60 380.08 1.60L380.08 1.60L380.08 1.60Q376.08 1.60 373.52-1.20L373.52-1.20L373.52-1.20Q371.44-3.52 371.44-6.16L371.44-6.16L371.44-6.16Q371.44-12.16 374.24-25.28L374.24-25.28L380.08-56L396.32-57.60L388.56-17.12L388.56-17.12Q387.20-11.20 387.20-9.12L387.20-9.12L387.20-9.12Q387.20-4.56 390.48-4.40ZM416.48-4.40L416.48-4.40L416.48-4.40Q414 1.60 406.08 1.60L406.08 1.60L406.08 1.60Q402 1.60 399.44-1.20L399.44-1.20L399.44-1.20Q397.28-3.68 397.28-6.16L397.28-6.16L397.28-6.16Q397.28-12.64 400.24-25.28L400.24-25.28L403.20-40.80L419.44-42.40L414.56-17.12L414.56-17.12Q413.20-11.20 413.20-9.12L413.20-9.12L413.20-9.12Q413.20-4.56 416.48-4.40ZM404.64-51.92L404.64-51.92L404.64-51.92Q404.64-55.04 407.24-56.72L407.24-56.72L407.24-56.72Q409.84-58.40 413.60-58.40L413.60-58.40L413.60-58.40Q417.36-58.40 419.64-56.72L419.64-56.72L419.64-56.72Q421.92-55.04 421.92-51.92L421.92-51.92L421.92-51.92Q421.92-48.80 419.40-47.20L419.40-47.20L419.40-47.20Q416.88-45.60 413.12-45.60L413.12-45.60L413.12-45.60Q409.36-45.60 407-47.20L407-47.20L407-47.20Q404.64-48.80 404.64-51.92ZM462.56-33.28L462.56-33.28L462.56-33.28Q462.56-29.92 459.76-27.84L459.76-27.84L459.76-27.84Q456.96-25.76 452.40-25.76L452.40-25.76L452.40-25.76Q450.48-25.76 449.36-26.32L449.36-26.32L449.36-26.32Q450.24-28.40 450.52-31L450.52-31L450.52-31Q450.80-33.60 450.80-34.32L450.80-34.32L450.80-34.32Q450.80-37.68 448.48-37.68L448.48-37.68L448.48-37.68Q446.88-37.68 445.08-35.68L445.08-35.68L445.08-35.68Q443.28-33.68 441.76-30.56L441.76-30.56L441.76-30.56Q438.40-23.36 438.40-16.08L438.40-16.08L438.40-16.08Q438.40-12.08 439.92-10.28L439.92-10.28L439.92-10.28Q441.44-8.48 444.80-8.48L444.80-8.48L444.80-8.48Q449.44-8.48 453.12-12.32L453.12-12.32L453.12-12.32Q454.16-13.52 454.72-14.88L454.72-14.88L454.72-14.88Q457.76-13.28 457.76-8.88L457.76-8.88L457.76-8.88Q457.76-4.40 452.80-1.44L452.80-1.44L452.80-1.44Q447.68 1.60 439.52 1.60L439.52 1.60L439.52 1.60Q423.28 1.60 423.28-15.60L423.28-15.60L423.28-15.60Q423.28-28.16 430.40-35.36L430.40-35.36L430.40-35.36Q437.28-42.40 449.92-42.40L449.92-42.40L449.92-42.40Q462.56-42.40 462.56-33.28ZM497.12-13.52L497.12-13.52L497.12-13.52Q499.12-12.16 499.12-9.16L499.12-9.16L499.12-9.16Q499.12-6.16 497.60-4.24L497.60-4.24L497.60-4.24Q496.08-2.32 493.60-1.04L493.60-1.04L493.60-1.04Q488.48 1.60 482.96 1.60L482.96 1.60L482.96 1.60Q477.44 1.60 474.20 0.40L474.20 0.40L474.20 0.40Q470.96-0.80 468.80-3.04L468.80-3.04L468.80-3.04Q464.56-7.28 464.56-15.04L464.56-15.04L464.56-15.04Q464.56-27.12 471.12-34.48L471.12-34.48L471.12-34.48Q478.16-42.40 490.40-42.40L490.40-42.40L490.40-42.40Q498-42.40 501.76-39.20L501.76-39.20L501.76-39.20Q504.56-36.80 504.56-32.88L504.56-32.88L504.56-32.88Q504.56-18.80 480.24-18.80L480.24-18.80L480.24-18.80Q479.92-16.72 479.92-14.96L479.92-14.96L479.92-14.96Q479.92-11.28 481.56-9.88L481.56-9.88L481.56-9.88Q483.20-8.48 486.24-8.48L486.24-8.48L486.24-8.48Q489.28-8.48 492.52-9.88L492.52-9.88L492.52-9.88Q495.76-11.28 497.12-13.52ZM480.80-22.24L480.80-22.24L480.80-22.24Q486.48-22.24 489.76-25.76L489.76-25.76L489.76-25.76Q493.04-29.12 493.04-34.48L493.04-34.48L493.04-34.48Q493.04-36.32 492.36-37.32L492.36-37.32L492.36-37.32Q491.68-38.32 490.32-38.32L490.32-38.32L490.32-38.32Q488.96-38.32 487.80-37.80L487.80-37.80L487.80-37.80Q486.64-37.28 485.44-35.52L485.44-35.52L485.44-35.52Q482.48-31.52 480.80-22.24Z" fill="#eb6c6c"></path></g></g><style>text {
  font-size: 64px;
  font-family: Arial Black;
  dominant-baseline: central;
  text-anchor: middle;
}</style></svg>