<svg width="570.4175292968749px" height="121.40498046875px" xmlns="http://www.w3.org/2000/svg" viewBox="-35.208764648437466 14.297509765625001 570.4175292968749 121.40498046875" style="background: rgba(0, 0, 0, 0);" preserveAspectRatio="xMidYMid"><defs><filter id="editing-extrude-glow"><feFlood flood-color="#333333" result="flood-1"></feFlood><feMorphology operator="erode" radius="1" in="SourceAlpha" result="erode"></feMorphology><feComposite operator="in" in="flood-1" in2="erode" result="comp1"></feComposite><feConvolveMatrix order="3,3" divisor="1" in="comp1" result="convolve" kernelMatrix="0 0 0 1 1 1 0 0 0"></feConvolveMatrix><feOffset dx="-3" dy="0" in="convolve" result="extrude"></feOffset><feComposite operator="in" in="flood-1" in2="extrude" result="comp-extrude"></feComposite><feFlood flood-color="#000000" result="flood-2"></feFlood><feComposite operator="in" in="flood-2" in2="SourceAlpha" result="comp2"></feComposite><feMorphology operator="dilate" radius="1" in="comp2" result="dilate"></feMorphology><feOffset dx="-4.5" dy="0" in="dilate" result="offset"></feOffset><feGaussianBlur in="offset" stdDeviation="5.8" result="blur"></feGaussianBlur><feComponentTransfer in="blur" result="shadow"><feFuncA type="linear" slope="0.8" intercept="-0.2"></feFuncA></feComponentTransfer><feMerge><feMergeNode in="shadow"></feMergeNode><feMergeNode in="comp-extrude"></feMergeNode><feMergeNode in="SourceGraphic"></feMergeNode></feMerge></filter></defs><g filter="url(#editing-extrude-glow)"><g transform="translate(47.950009137392044, 104.79000091552734)"><path d="M26.11-42.69L26.11-42.69L26.11-42.69Q41.79-42.69 41.79-31.62L41.79-31.62L41.79-31.62Q41.79-25.54 37.89-21.89L37.89-21.89L37.89-21.89Q34.05-18.24 27.33-18.24L27.33-18.24L27.33-18.24Q24.19-18.24 21.76-20.03L21.76-20.03L21.76-20.03Q20.61-20.80 19.84-21.82L19.84-21.82L19.84-21.82Q24.51-21.82 26.98-24.67L26.98-24.67L26.98-24.67Q29.44-27.52 29.44-33.09L29.44-33.09L29.44-33.09Q29.44-38.66 23.94-38.66L23.94-38.66L22.40-38.66L22.40-38.66Q22.02-38.66 21.70-38.59L21.70-38.59L14.34 0L0.45 0L8.32-41.92L8.32-41.92Q15.17-42.56 19.14-42.62L19.14-42.62L19.14-42.62Q23.10-42.69 26.11-42.69ZM62.14-17.98L62.14-17.98L62.14-17.98Q64.45-22.08 64.45-26.24L64.45-26.24L64.45-26.24Q64.45-28.99 62.46-28.99L62.46-28.99L62.46-28.99Q60.93-28.99 59.33-26.37L59.33-26.37L59.33-26.37Q57.66-23.74 57.15-20.35L57.15-20.35L53.82 0L40.58 1.28L47.10-32.64L57.66-33.92L56.51-27.46L56.51-27.46Q59.65-33.92 66.69-33.92L66.69-33.92L66.69-33.92Q70.40-33.92 72.42-32L72.42-32L72.42-32Q74.43-30.08 74.43-26.14L74.43-26.14L74.43-26.14Q74.43-22.21 71.84-19.71L71.84-19.71L71.84-19.71Q69.25-17.22 64.83-17.22L64.83-17.22L64.83-17.22Q62.91-17.22 62.14-17.98ZM90.82-3.52L90.82-3.52L90.82-3.52Q88.83 1.28 82.50 1.28L82.50 1.28L82.50 1.28Q79.23 1.28 77.18-0.96L77.18-0.96L77.18-0.96Q75.46-2.94 75.46-4.93L75.46-4.93L75.46-4.93Q75.46-10.11 77.82-20.22L77.82-20.22L80.19-32.64L93.18-33.92L89.28-13.70L89.28-13.70Q88.19-8.96 88.19-7.30L88.19-7.30L88.19-7.30Q88.19-3.65 90.82-3.52ZM81.34-41.54L81.34-41.54L81.34-41.54Q81.34-44.03 83.42-45.38L83.42-45.38L83.42-45.38Q85.50-46.72 88.51-46.72L88.51-46.72L88.51-46.72Q91.52-46.72 93.34-45.38L93.34-45.38L93.34-45.38Q95.17-44.03 95.17-41.54L95.17-41.54L95.17-41.54Q95.17-39.04 93.15-37.76L93.15-37.76L93.15-37.76Q91.14-36.48 88.13-36.48L88.13-36.48L88.13-36.48Q85.12-36.48 83.23-37.76L83.23-37.76L83.23-37.76Q81.34-39.04 81.34-41.54ZM127.68-26.62L127.68-26.62L127.68-26.62Q127.68-23.94 125.44-22.27L125.44-22.27L125.44-22.27Q123.20-20.61 119.55-20.61L119.55-20.61L119.55-20.61Q118.02-20.61 117.12-21.06L117.12-21.06L117.12-21.06Q117.82-22.72 118.05-24.80L118.05-24.80L118.05-24.80Q118.27-26.88 118.27-27.46L118.27-27.46L118.27-27.46Q118.27-30.14 116.42-30.14L116.42-30.14L116.42-30.14Q115.14-30.14 113.70-28.54L113.70-28.54L113.70-28.54Q112.26-26.94 111.04-24.45L111.04-24.45L111.04-24.45Q108.35-18.69 108.35-12.86L108.35-12.86L108.35-12.86Q108.35-9.66 109.57-8.22L109.57-8.22L109.57-8.22Q110.78-6.78 113.47-6.78L113.47-6.78L113.47-6.78Q117.18-6.78 120.13-9.86L120.13-9.86L120.13-9.86Q120.96-10.82 121.41-11.90L121.41-11.90L121.41-11.90Q123.84-10.62 123.84-7.10L123.84-7.10L123.84-7.10Q123.84-3.52 119.87-1.15L119.87-1.15L119.87-1.15Q115.78 1.28 109.25 1.28L109.25 1.28L109.25 1.28Q96.26 1.28 96.26-12.48L96.26-12.48L96.26-12.48Q96.26-22.53 101.95-28.29L101.95-28.29L101.95-28.29Q107.46-33.92 117.57-33.92L117.57-33.92L117.57-33.92Q127.68-33.92 127.68-26.62ZM155.33-10.82L155.33-10.82L155.33-10.82Q156.93-9.73 156.93-7.33L156.93-7.33L156.93-7.33Q156.93-4.93 155.71-3.39L155.71-3.39L155.71-3.39Q154.50-1.86 152.51-0.83L152.51-0.83L152.51-0.83Q148.42 1.28 144 1.28L144 1.28L144 1.28Q139.58 1.28 136.99 0.32L136.99 0.32L136.99 0.32Q134.40-0.64 132.67-2.43L132.67-2.43L132.67-2.43Q129.28-5.82 129.28-12.03L129.28-12.03L129.28-12.03Q129.28-21.70 134.53-27.58L134.53-27.58L134.53-27.58Q140.16-33.92 149.95-33.92L149.95-33.92L149.95-33.92Q156.03-33.92 159.04-31.36L159.04-31.36L159.04-31.36Q161.28-29.44 161.28-26.30L161.28-26.30L161.28-26.30Q161.28-15.04 141.82-15.04L141.82-15.04L141.82-15.04Q141.57-13.38 141.57-11.97L141.57-11.97L141.57-11.97Q141.57-9.02 142.88-7.90L142.88-7.90L142.88-7.90Q144.19-6.78 146.62-6.78L146.62-6.78L146.62-6.78Q149.06-6.78 151.65-7.90L151.65-7.90L151.65-7.90Q154.24-9.02 155.33-10.82ZM142.27-17.79L142.27-17.79L142.27-17.79Q146.82-17.79 149.44-20.61L149.44-20.61L149.44-20.61Q152.06-23.30 152.06-27.58L152.06-27.58L152.06-27.58Q152.06-29.06 151.52-29.86L151.52-29.86L151.52-29.86Q150.98-30.66 149.89-30.66L149.89-30.66L149.89-30.66Q148.80-30.66 147.87-30.24L147.87-30.24L147.87-30.24Q146.94-29.82 145.98-28.42L145.98-28.42L145.98-28.42Q143.62-25.22 142.27-17.79ZM168.90 0L161.54 0L173.12-42.24L186.50-42.24L189.44-18.11L201.34-42.24L212.54-42.24L213.70-10.62L213.70-10.62Q213.95-4.35 217.02-2.43L217.02-2.43L217.02-2.43Q216.32-1.15 214.27 0.06L214.27 0.06L214.27 0.06Q212.22 1.28 209.50 1.28L209.50 1.28L209.50 1.28Q206.78 1.28 205.18 0.51L205.18 0.51L205.18 0.51Q203.58-0.26 202.69-1.54L202.69-1.54L202.69-1.54Q201.09-3.84 201.09-8.26L201.09-8.26L201.09-28.03L188.48 0L180.54 0L176.06-28.74L168.90 0ZM240.13-7.23L240.13-7.23L240.13-7.23Q236.80-3.78 230.72-3.78L230.72-3.78L230.72-3.78Q223.10-3.78 221.50-9.34L221.50-9.34L221.50-9.34Q220.99-11.01 220.99-12.86L220.99-12.86L220.99-12.86Q220.99-14.72 221.38-16.64L221.38-16.64L224.38-32.64L237.38-33.92L233.86-15.30L233.86-15.30Q233.73-14.46 233.54-13.57L233.54-13.57L233.54-13.57Q233.34-12.67 233.34-11.74L233.34-11.74L233.34-11.74Q233.34-10.82 233.66-10.21L233.66-10.21L233.66-10.21Q233.98-9.60 234.43-9.22L234.43-9.22L234.43-9.22Q235.20-8.70 236.58-8.70L236.58-8.70L236.58-8.70Q237.95-8.70 239.14-10.37L239.14-10.37L239.14-10.37Q240.32-12.03 240.90-14.91L240.90-14.91L244.42-32.64L257.02-33.92L252.22-8.77L252.22-8.77Q249.86 3.52 244.99 8.38L244.99 8.38L244.99 8.38Q242.50 10.88 239.26 11.87L239.26 11.87L239.26 11.87Q236.03 12.86 231.87 12.86L231.87 12.86L231.87 12.86Q225.15 12.86 221.31 10.75L221.31 10.75L221.31 10.75Q217.47 8.64 217.47 5.12L217.47 5.12L217.47 5.12Q217.47 2.50 219.46 0.99L219.46 0.99L219.46 0.99Q221.44-0.51 224.51-0.51L224.51-0.51L224.51-0.51Q227.20-0.51 229.25 0.64L229.25 0.64L229.25 0.64Q230.46 1.34 231.04 2.24L231.04 2.24L231.04 2.24Q229.57 3.52 229.57 5.63L229.57 5.63L229.57 5.63Q229.57 8.45 232.13 8.45L232.13 8.45L232.13 8.45Q236.35 8.45 238.78-1.28L238.78-1.28L238.78-1.28Q239.49-4.16 240.13-7.23ZM284.29-29.57L284.29-29.57L284.29-29.57Q285.25-31.49 285.25-33.28L285.25-33.28L285.25-33.28Q285.25-35.07 285.06-36.06L285.06-36.06L285.06-36.06Q284.86-37.06 284.42-37.82L284.42-37.82L284.42-37.82Q283.46-39.49 281.54-39.49L281.54-39.49L281.54-39.49Q279.17-39.49 277.25-37.76L277.25-37.76L277.25-37.76Q275.20-35.97 275.20-33.15L275.20-33.15L275.20-33.15Q275.20-31.36 276.45-29.98L276.45-29.98L276.45-29.98Q277.70-28.61 279.62-27.33L279.62-27.33L279.62-27.33Q281.54-26.05 283.71-24.77L283.71-24.77L283.71-24.77Q285.89-23.49 287.81-21.95L287.81-21.95L287.81-21.95Q292.22-18.43 292.22-13.70L292.22-13.70L292.22-13.70Q292.22-10.50 290.53-7.78L290.53-7.78L290.53-7.78Q288.83-5.06 286.02-3.07L286.02-3.07L286.02-3.07Q279.87 1.28 271.74 1.28L271.74 1.28L271.74 1.28Q265.15 1.28 261.76-0.86L261.76-0.86L261.76-0.86Q258.37-3.01 258.37-6.27L258.37-6.27L258.37-6.27Q258.37-12.10 262.91-13.57L262.91-13.57L262.91-13.57Q264.19-14.02 266.14-14.02L266.14-14.02L266.14-14.02Q268.10-14.02 270.34-13.18L270.34-13.18L270.34-13.18Q269.31-10.56 269.31-8.19L269.31-8.19L269.31-8.19Q269.31-3.07 272.96-3.07L272.96-3.07L272.96-3.07Q275.33-3.07 277.28-4.80L277.28-4.80L277.28-4.80Q279.23-6.53 279.23-8.48L279.23-8.48L279.23-8.48Q279.23-10.43 277.98-11.84L277.98-11.84L277.98-11.84Q276.74-13.25 274.88-14.37L274.88-14.37L274.88-14.37Q273.02-15.49 270.88-16.58L270.88-16.58L270.88-16.58Q268.74-17.66 266.88-19.20L266.88-19.20L266.88-19.20Q262.53-22.72 262.53-28.35L262.53-28.35L262.53-28.35Q262.53-32 264.32-34.85L264.32-34.85L264.32-34.85Q266.11-37.70 268.99-39.62L268.99-39.62L268.99-39.62Q274.75-43.52 281.82-43.52L281.82-43.52L281.82-43.52Q288.90-43.52 292.32-41.41L292.32-41.41L292.32-41.41Q295.74-39.30 295.74-35.71L295.74-35.71L295.74-35.71Q295.74-32.58 293.31-30.59L293.31-30.59L293.31-30.59Q291.20-28.93 288.64-28.93L288.64-28.93L288.64-28.93Q286.08-28.93 284.29-29.57ZM312.38-3.52L312.38-3.52L312.38-3.52Q310.40 1.28 304.06 1.28L304.06 1.28L304.06 1.28Q300.86 1.28 298.82-0.96L298.82-0.96L298.82-0.96Q297.15-2.82 297.15-4.93L297.15-4.93L297.15-4.93Q297.15-9.73 299.39-20.22L299.39-20.22L304.06-44.80L317.06-46.08L310.85-13.70L310.85-13.70Q309.76-8.96 309.76-7.30L309.76-7.30L309.76-7.30Q309.76-3.65 312.38-3.52ZM333.18-3.52L333.18-3.52L333.18-3.52Q331.20 1.28 324.86 1.28L324.86 1.28L324.86 1.28Q321.60 1.28 319.55-0.96L319.55-0.96L319.55-0.96Q317.82-2.94 317.82-4.93L317.82-4.93L317.82-4.93Q317.82-10.11 320.19-20.22L320.19-20.22L322.56-32.64L335.55-33.92L331.65-13.70L331.65-13.70Q330.56-8.96 330.56-7.30L330.56-7.30L330.56-7.30Q330.56-3.65 333.18-3.52ZM323.71-41.54L323.71-41.54L323.71-41.54Q323.71-44.03 325.79-45.38L325.79-45.38L325.79-45.38Q327.87-46.72 330.88-46.72L330.88-46.72L330.88-46.72Q333.89-46.72 335.71-45.38L335.71-45.38L335.71-45.38Q337.54-44.03 337.54-41.54L337.54-41.54L337.54-41.54Q337.54-39.04 335.52-37.76L335.52-37.76L335.52-37.76Q333.50-36.48 330.50-36.48L330.50-36.48L330.50-36.48Q327.49-36.48 325.60-37.76L325.60-37.76L325.60-37.76Q323.71-39.04 323.71-41.54ZM370.05-26.62L370.05-26.62L370.05-26.62Q370.05-23.94 367.81-22.27L367.81-22.27L367.81-22.27Q365.57-20.61 361.92-20.61L361.92-20.61L361.92-20.61Q360.38-20.61 359.49-21.06L359.49-21.06L359.49-21.06Q360.19-22.72 360.42-24.80L360.42-24.80L360.42-24.80Q360.64-26.88 360.64-27.46L360.64-27.46L360.64-27.46Q360.64-30.14 358.78-30.14L358.78-30.14L358.78-30.14Q357.50-30.14 356.06-28.54L356.06-28.54L356.06-28.54Q354.62-26.94 353.41-24.45L353.41-24.45L353.41-24.45Q350.72-18.69 350.72-12.86L350.72-12.86L350.72-12.86Q350.72-9.66 351.94-8.22L351.94-8.22L351.94-8.22Q353.15-6.78 355.84-6.78L355.84-6.78L355.84-6.78Q359.55-6.78 362.50-9.86L362.50-9.86L362.50-9.86Q363.33-10.82 363.78-11.90L363.78-11.90L363.78-11.90Q366.21-10.62 366.21-7.10L366.21-7.10L366.21-7.10Q366.21-3.52 362.24-1.15L362.24-1.15L362.24-1.15Q358.14 1.28 351.62 1.28L351.62 1.28L351.62 1.28Q338.62 1.28 338.62-12.48L338.62-12.48L338.62-12.48Q338.62-22.53 344.32-28.29L344.32-28.29L344.32-28.29Q349.82-33.92 359.94-33.92L359.94-33.92L359.94-33.92Q370.05-33.92 370.05-26.62ZM397.70-10.82L397.70-10.82L397.70-10.82Q399.30-9.73 399.30-7.33L399.30-7.33L399.30-7.33Q399.30-4.93 398.08-3.39L398.08-3.39L398.08-3.39Q396.86-1.86 394.88-0.83L394.88-0.83L394.88-0.83Q390.78 1.28 386.37 1.28L386.37 1.28L386.37 1.28Q381.95 1.28 379.36 0.32L379.36 0.32L379.36 0.32Q376.77-0.64 375.04-2.43L375.04-2.43L375.04-2.43Q371.65-5.82 371.65-12.03L371.65-12.03L371.65-12.03Q371.65-21.70 376.90-27.58L376.90-27.58L376.90-27.58Q382.53-33.92 392.32-33.92L392.32-33.92L392.32-33.92Q398.40-33.92 401.41-31.36L401.41-31.36L401.41-31.36Q403.65-29.44 403.65-26.30L403.65-26.30L403.65-26.30Q403.65-15.04 384.19-15.04L384.19-15.04L384.19-15.04Q383.94-13.38 383.94-11.97L383.94-11.97L383.94-11.97Q383.94-9.02 385.25-7.90L385.25-7.90L385.25-7.90Q386.56-6.78 388.99-6.78L388.99-6.78L388.99-6.78Q391.42-6.78 394.02-7.90L394.02-7.90L394.02-7.90Q396.61-9.02 397.70-10.82ZM384.64-17.79L384.64-17.79L384.64-17.79Q389.18-17.79 391.81-20.61L391.81-20.61L391.81-20.61Q394.43-23.30 394.43-27.58L394.43-27.58L394.43-27.58Q394.43-29.06 393.89-29.86L393.89-29.86L393.89-29.86Q393.34-30.66 392.26-30.66L392.26-30.66L392.26-30.66Q391.17-30.66 390.24-30.24L390.24-30.24L390.24-30.24Q389.31-29.82 388.35-28.42L388.35-28.42L388.35-28.42Q385.98-25.22 384.64-17.79Z" fill="#eb6c6c"></path></g></g><style>text {
  font-size: 64px;
  font-family: Arial Black;
  dominant-baseline: central;
  text-anchor: middle;
}</style></svg>